<?xml version="1.0" encoding="utf-8"?>
<!-- Generator: Adobe Illustrator 25.4.1, SVG Export Plug-In . SVG Version: 6.00 Build 0)  -->
<svg version="1.1" id="Layer_1" xmlns="http://www.w3.org/2000/svg" xmlns:xlink="http://www.w3.org/1999/xlink" x="0px" y="0px"
	 viewBox="0 0 44.46 26" style="enable-background:new 0 0 44.46 26;" xml:space="preserve">
<style type="text/css">
	.st0{fill:#FFFFFF;}
</style>
<g>
	<path class="st0" d="M37.53,22.96l-8.04-6.23l0,0l-10.06-7.8l-5.54-4.29l0,0L13.32,4.2L8.77,0.67C8.5,0.46,8.18,0.36,7.86,0.36
		c-0.45,0-0.89,0.2-1.19,0.58c-0.51,0.66-0.39,1.6,0.27,2.1l1.55,1.2C5.5,6.2,2.74,8.8,0.32,12.01c-0.42,0.56-0.42,1.44,0,2
		C6.15,21.74,13.93,26,22.23,26c3.8,0,7.49-0.91,10.94-2.63l2.52,1.95c0.27,0.21,0.6,0.31,0.92,0.31c0.45,0,0.89-0.2,1.19-0.58
		C38.3,24.4,38.18,23.46,37.53,22.96z M22.23,23.03c-7.19,0-14.02-3.55-19.28-10.01c2.37-2.91,5.05-5.23,7.94-6.9l4.08,3.16
		c-0.58,1.12-0.91,2.38-0.91,3.72c0,4.51,3.66,8.17,8.17,8.17c2.08,0,3.97-0.79,5.41-2.08l2.93,2.27
		C27.9,22.45,25.1,23.03,22.23,23.03z"/>
	<path class="st0" d="M44.15,12.01C38.3,4.27,30.51,0,22.23,0c-2.24,0-4.45,0.32-6.59,0.93l3.03,2.35c1.18-0.2,2.36-0.3,3.56-0.3
		c7.18,0,14.01,3.56,19.28,10.04c-1.39,1.71-2.89,3.21-4.48,4.49l2.26,1.75c1.73-1.51,3.36-3.26,4.85-5.25
		C44.57,13.45,44.57,12.57,44.15,12.01z"/>
</g>
</svg>
