<?xml version="1.0" encoding="utf-8"?>
<!-- Generator: Adobe Illustrator 26.0.1, SVG Export Plug-In . SVG Version: 6.00 Build 0)  -->
<svg version="1.1" id="Laag_1" xmlns="http://www.w3.org/2000/svg" xmlns:xlink="http://www.w3.org/1999/xlink" x="0px" y="0px"
	 viewBox="0 0 1438.3 666" style="enable-background:new 0 0 1438.3 666;" xml:space="preserve">
<style type="text/css">
	.st0{fill:#FFFFFF;}
</style>
<path class="st0" d="M198.3,663c36.2-34.3,100.4-57.1,173.6-57.1c75.3,0,141.1,24.1,176.7,60.1h202L385.5,0L126.2,468.7
	c0,0,80.2-52.9,197.9-45.7l61.4-120l105.8,191.5c0,0-310.4-82.9-491.2,168.6L198.3,663z"/>
<g>
	<polygon class="st0" points="644.7,96.8 697.8,193.6 1438.3,193.6 1438.3,96.8 	"/>
	<polygon class="st0" points="747.7,284.6 800.7,381.4 1438.3,381.4 1438.3,284.6 	"/>
	<polygon class="st0" points="850.6,472.4 903.7,569.2 1438.3,569.2 1438.3,472.4 	"/>
</g>
</svg>
