<?xml version="1.0" encoding="utf-8"?>
<!-- Generator: Adobe Illustrator 25.4.1, SVG Export Plug-In . SVG Version: 6.00 Build 0)  -->
<svg version="1.1" id="Laag_1" xmlns="http://www.w3.org/2000/svg" xmlns:xlink="http://www.w3.org/1999/xlink" x="0px" y="0px"
	 viewBox="0 0 1438.3 666" style="enable-background:new 0 0 1438.3 666;" xml:space="preserve" fill="#FFFFFF">
<path d="M198.3,663c36.2-34.3,100.4-57.1,173.6-57.1c75.3,0,141.1,24.1,176.7,60.1h202L385.5,0L126.2,468.7
	c0,0,80.2-52.9,197.9-45.7l61.4-120l105.8,191.5c0,0-310.4-82.9-491.2,168.6L198.3,663z"/>
<polygon points="630,0 683,96.8 1438.3,96.8 1438.3,0 "/>
<polygon points="786,284.6 839,381.4 1438.3,381.4 1438.3,284.6 "/>
<polygon points="942,569.2 995,666 1438.3,666 1438.3,569.2 "/>
</svg>
