<?xml version="1.0" encoding="utf-8"?>
<!-- Generator: Adobe Illustrator 25.4.1, SVG Export Plug-In . SVG Version: 6.00 Build 0)  -->
<svg version="1.1" id="Layer_1" xmlns="http://www.w3.org/2000/svg" xmlns:xlink="http://www.w3.org/1999/xlink" x="0px" y="0px"
	 viewBox="0 0 18 18" style="enable-background:new 0 0 18 18;" xml:space="preserve">
<style type="text/css">
	.st0{fill:none;}
	.st1{fill:#FFFFFF;}
</style>
<path class="st0" d="M18,0v18H0V0H18z"/>
<path class="st1" d="M14.2,12l-1.1-1.1l1.2-1.2H6V8.3h8.4l-1.2-1.2L14.2,6l3,3L14.2,12z M10.5,15H2.2c-0.8,0-1.5-0.7-1.5-1.5v-9
	C0.8,3.7,1.4,3,2.2,3h8.2C11.3,3,12,3.7,12,4.5v2.2h-1.5V4.5H2.2v9h8.2v-2.2H12v2.2C12,14.3,11.3,15,10.5,15z"/>
</svg>
