<?xml version="1.0" encoding="utf-8"?>
<!-- Generator: Adobe Illustrator 25.4.1, SVG Export Plug-In . SVG Version: 6.00 Build 0)  -->
<svg version="1.1" id="Layer_1" xmlns="http://www.w3.org/2000/svg" xmlns:xlink="http://www.w3.org/1999/xlink" x="0px" y="0px"
	 viewBox="0 0 44.46 26" style="enable-background:new 0 0 44.46 26;" xml:space="preserve">
<style type="text/css">
	.st0{fill:#FFFFFF;}
</style>
<path class="st0" d="M44.15,12.01C38.3,4.27,30.51,0,22.23,0C13.95,0,6.17,4.27,0.32,12.01c-0.42,0.56-0.42,1.44,0,2
	C6.15,21.74,13.93,26,22.23,26c8.3,0,16.08-4.26,21.91-11.99C44.57,13.45,44.57,12.57,44.15,12.01z M41.51,13.01
	c-5.26,6.46-12.09,10.01-19.28,10.01c-7.19,0-14.02-3.55-19.28-10.01C8.22,6.54,15.05,2.98,22.23,2.98
	C29.41,2.98,36.24,6.54,41.51,13.01z"/>
<g>
	<circle class="st0" cx="22.23" cy="13" r="8.17"/>
</g>
</svg>
